<?xml version="1.0" encoding="utf-8"?>
<!-- Generator: Adobe Illustrator 19.1.0, SVG Export Plug-In . SVG Version: 6.00 Build 0)  -->
<svg version="1.1" id="Layer_1" xmlns="http://www.w3.org/2000/svg" xmlns:xlink="http://www.w3.org/1999/xlink" x="0px" y="0px"
	 viewBox="0 0 173.6 179.9" style="enable-background:new 0 0 173.6 179.9;" xml:space="preserve">
<style type="text/css">
	.st0{fill:#FEC42C;}
	.st1{fill:#FFFFFF;}
	.st2{fill:none;}
</style>
<g>
	<g>
		<path class="st0" d="M78.6,169.6c0-1.1-0.5-1.5-1-1.6c-0.7-0.1-1.2,0.3-1.3,1.1c-0.3,2.2,4.2,3.8,3.8,7.3c-0.2,2.1-1.8,3.1-4,2.9
			c-2.1-0.2-3.1-2-3-4l2.2-0.1c-0.1,1.3,0.4,2,1.1,2.1c0.8,0.1,1.4-0.3,1.4-1c0.3-2.6-4.2-3.8-3.8-7.5c0.2-2.1,1.6-3.1,3.9-2.8
			c1.8,0.2,2.8,1.6,2.8,3.5L78.6,169.6z"/>
		<path class="st0" d="M82.6,179.7l0.4-13l2.3,0.1l-0.4,13L82.6,179.7z"/>
		<path class="st0" d="M91.1,173.1l3.7-0.2l0.4,6.6l-1.1,0.1l-0.5-0.9c-0.6,0.8-1.2,1.2-2.2,1.3c-1.8,0.1-3.1-1.1-3.2-3.2l-0.4-6.7
			c-0.1-1.8,0.9-3.4,3.1-3.5c2.3-0.1,3.5,1.4,3.6,3.4l0,0.8l-2.2,0.1c-0.1-1.9-0.5-2.4-1.4-2.4c-0.5,0-1,0.4-0.9,1.5l0.4,6.7
			c0,0.8,0.4,1.4,1.1,1.3c0.9-0.1,1.2-0.6,1.1-1.9l-0.1-1.3l-1.4,0.1L91.1,173.1z"/>
		<path class="st0" d="M98.5,179.1l-2.2-12.8l2.1-0.4l4,6.8l0,0l-1.3-7.3l2-0.4l2.2,12.8l-2,0.3l-4.3-7.5l0,0l1.4,8L98.5,179.1z"/>
		<path class="st0" d="M108.7,163.7l2.2-0.7l3.2,9.3c0.3,0.9,0.8,1.2,1.6,1c0.8-0.3,1-0.8,0.7-1.7l-3.2-9.3l2.2-0.7l3.2,9.2
			c0.7,2.1-0.1,3.7-2.2,4.4c-2,0.7-3.7,0-4.4-2.1L108.7,163.7z"/>
		<path class="st0" d="M122.5,172.5l-5.6-11.7l2.9-1.4c2.5-1.2,4.2-0.8,5.4,1.7s0.5,4-2.1,5.2l-0.9,0.4l2.3,4.8L122.5,172.5z
			 M121.5,165.1l0.8-0.4c1.3-0.6,1.6-1.2,0.9-2.6c-0.7-1.4-1.3-1.6-2.6-1l-0.8,0.4L121.5,165.1z"/>
	</g>
	<g>
		<path class="st0" d="M64.5,1.1c2.2-0.3,3.6,0.7,3.9,2.4c0.2,1.1-0.4,2.2-1.2,2.6c1.1,0.1,2.2,0.9,2.4,2.3c0.3,1.8-0.9,3.3-2.9,3.6
			l-5,0.8l-1.8-11L64.5,1.1z M64.9,5.7c1-0.2,1.5-0.8,1.4-1.6S65.5,2.8,64.4,3l-2.2,0.3L62.7,6L64.9,5.7z M65.9,10.3
			c1.1-0.2,1.6-0.8,1.5-1.7c-0.1-0.9-0.8-1.4-1.9-1.2L63,7.8l0.5,2.9L65.9,10.3z"/>
		<rect x="70.3" y="0.4" transform="matrix(0.9876 -0.1573 0.1573 0.9876 0.738 11.4965)" class="st0" width="5.4" height="1.3"/>
		<path class="st0" d="M75.8,8.2c-0.2,0.5-0.6,1-1.4,1.1c-1,0.2-1.9-0.5-2.1-1.5l5.6-0.9c0,0,0-0.2-0.1-0.5
			c-0.4-2.4-2.1-3.9-4.6-3.5c-2,0.3-3.5,2.2-3.2,4.7c0.4,2.6,2.5,3.8,4.6,3.5c1.9-0.3,3-1.6,3.3-2.9c0-0.1,0-0.2,0-0.3L75.8,8.2z
			 M73.5,4.5c1.2-0.2,1.7,0.5,1.9,1.3l-3.3,0.5C72,5.6,72.4,4.7,73.5,4.5z"/>
	</g>
	<path class="st0" d="M135.6,161.5l-1.1-1.7c27.1-18.4,41.3-51.2,36.2-83.6c-6.8-42.5-44.2-73.1-87.1-71.4l-0.1-2
		c43.9-1.8,82.3,29.6,89.2,73.1C177.8,109.1,163.3,142.6,135.6,161.5z"/>
	<path class="st0" d="M62.2,172.9c-31.9-9.5-55.9-36.8-61.1-69.6C-2,83.6,1.5,64,11.4,46.7C20.9,29.9,36,16.7,53.7,9.4l0.8,1.8
		c-17.4,7.1-32.1,20.1-41.4,36.5c-9.6,16.9-13.1,36-10,55.2c5.1,32.1,28.5,58.8,59.7,68L62.2,172.9z"/>
	<g>
		<path class="st1" d="M47.2,76c-1.8,3.5-4.9,3.9-5.2,2.2c-2.3,2.9-4.5,1.7-3.2-1l4-7.7c-2,1.4-5.5,2.3-5.5,4.3
			c0,0.8,0.8,0.9,0.8,0.9l-0.6,1.1c-0.8-0.2-1.6-0.7-1.6-1.8c0-3.2,4.9-3.9,7.8-6.4l0.8,1.2l-4.4,8.6c-1,2,0.3,2.5,2.2-0.9l4.7-9
			l1.6-0.3l-5.2,10.2c-0.7,1.5,1,1.5,2.3-1l4.1-8c1.8-3.5,4.3-2.8,4.7-1.6l-1,0.8c-0.4-0.9-1.5-0.6-2.3,1.1L47.2,76z"/>
		<path class="st1" d="M51.1,74.5l-0.1,0.3c-0.7,1.4-0.2,1.9,0.8,1.7c1.1-0.2,2.5-1.5,3.7-3.1l0.1-0.1c0.2,0,0.5,0.2,0.6,0.4
			c-1.3,1.8-3,3.5-4.8,3.8c-1.8,0.4-2.7-1-1.7-2.9l1.6-3.1c0.7-1.3,1.7-2.1,2.9-2.4c1.3-0.2,2.1,0.7,1.2,2.3l-0.2,0.4
			C54,74.1,52.1,74.7,51.1,74.5z M51.5,73.6c0.6,0.1,1.6-0.1,2.3-1.5l0.2-0.4c0.9-1.8-0.7-1.7-1.6,0L51.5,73.6z"/>
		<path class="st1" d="M67.4,71c0.2,0,0.5,0.2,0.6,0.4c-1.3,1.8-2.8,3.4-4.1,3.7c-0.8,0.2-1.3-0.2-1.3-0.8c-0.8,0.8-1.5,1.3-2.2,1.4
			c-1.3,0.2-1.7-0.7-1.1-2l2.2-4.2c0.7-1.3,1.8-2.2,2.7-2.3c1-0.2,1.7,0.6,1.6,1.3l0.9-0.2l-2.5,4.9c-0.4,0.7-0.2,0.9,0.2,0.8
			c0.7-0.1,1.8-1.4,2.9-2.9L67.4,71z M60.7,73.9c-0.4,0.7-0.2,0.9,0.2,0.8c0.6-0.1,1.6-1,2.5-2.7l1.2-2.4c0.8-1.6-0.9-1.6-1.7,0
			L60.7,73.9z"/>
		<path class="st1" d="M70.9,68.6c0.2-0.4,0.1-0.6-0.1-0.9l-0.2-0.2c-1.2,1.9-1.8,2.8-2.6,3.8c-0.2-0.1-0.4-0.3-0.6-0.4
			c1-1.4,1.9-2.9,2.6-4l-0.1-0.2c-0.6-0.6-0.5-1.5,0.4-2.5l0.8,0.7c-0.3,0.4-0.3,0.7-0.1,0.9l0.9,0.9c0.5,0.5,0.8,1,0.2,2.1l-1.6,3
			c-0.4,0.7-0.2,0.9,0.2,0.8c0.7-0.1,1.8-1.4,2.9-2.9l0.1-0.1c0.2,0,0.5,0.2,0.6,0.4c-1.3,1.8-2.8,3.4-4.1,3.7
			c-1.3,0.2-1.7-0.7-1.1-2L70.9,68.6z"/>
		<path class="st1" d="M75.2,69.8L75,70.1c-0.7,1.4-0.2,1.9,0.8,1.7c1.1-0.2,2.5-1.5,3.7-3.1l0.1-0.1c0.2,0,0.5,0.2,0.6,0.4
			c-1.3,1.8-3,3.5-4.8,3.8c-1.8,0.4-2.7-1-1.7-2.9l1.6-3.1c0.7-1.3,1.7-2.1,2.9-2.4c1.3-0.2,2.1,0.7,1.2,2.3l-0.2,0.4
			C78.1,69.4,76.2,70,75.2,69.8z M75.6,68.9c0.6,0.1,1.6-0.1,2.3-1.5l0.2-0.4c0.9-1.8-0.7-1.7-1.6,0L75.6,68.9z"/>
		<path class="st1" d="M91.5,66.3c0.2,0,0.5,0.2,0.6,0.4c-1.3,1.8-2.8,3.4-4.1,3.7c-1.3,0.2-1.7-0.7-1.1-2l2-3.9
			c0.7-1.3-0.4-1.5-2.8,2L83.9,71l-1.6,0.3l6.2-12l1.6-0.3l-2.5,4.8c0.8-1,1.5-1.5,2.2-1.6c0.9-0.2,1.5,0.6,0.8,1.9l-2.2,4.4
			c-0.4,0.7-0.2,0.9,0.2,0.8c0.7-0.1,1.8-1.4,2.9-2.9L91.5,66.3z"/>
		<path class="st1" d="M95.4,67.6c-2.1,3.1-5.9,2.5-3.9-1.2l0.7-1.3l0.8-1.5c0.9-1.7,1.8-2.4,3-2.6c1.5-0.3,2.3,1.1,1.4,2.9
			l-1.5,2.8c0.8-0.2,1.7-0.7,2.4-1.6l0.1-0.1c0.2,0,0.5,0.2,0.6,0.4c-0.8,1.1-2.3,2-3.2,2.1L95.4,67.6z M94.9,65.7L94.9,65.7
			l1.2-2.2c0.9-1.8-0.6-2.2-1.6-0.2l-0.8,1.4l-1.2,2.3c-0.9,1.8,0.9,1.7,1.6,0.3l0,0C94.1,67.2,94,67,94,66.8
			C94,66.3,94.4,65.8,94.9,65.7z"/>
		<path class="st1" d="M97.7,67.2l1-0.7c0,0,0.2,0.5,0.7,0.4c1.5-0.3,1.2-3.1,1.8-4.9c-0.6,0.8-1.3,2.1-2.2,3.3
			c-0.2-0.1-0.4-0.3-0.6-0.4c1.4-1.9,2.8-4.2,3.5-5.2l1.2,0.4c-1,2.2-0.9,4.4-1.4,6c0.6-0.5,1.3-1.3,1.9-2.1l0.1-0.1
			c0.2,0,0.5,0.2,0.6,0.4c-1.2,1.6-2.7,3.2-4.3,3.7c0,0,0,0,0,0c-0.2,0-0.3,0.1-0.4,0.1C97.9,68.4,97.7,67.2,97.7,67.2z"/>
		<path class="st1" d="M105.1,58.7l1.4-0.3l1.5-2.8l1.6-0.3l-1.5,2.8l1.3-0.2l-0.5,0.8l-1.3,0.2l-3.3,6.5c-0.4,0.7-0.2,0.9,0.2,0.8
			c0.7-0.1,1.8-1.4,2.9-2.9l0.1-0.1c0.2,0,0.5,0.2,0.6,0.4c-1.3,1.8-2.8,3.4-4.1,3.7c-1.3,0.2-1.7-0.7-1.1-2l3.1-6l-1.4,0.3
			L105.1,58.7z"/>
		<path class="st1" d="M111.3,62.4c0.2,0,0.5,0.2,0.6,0.4c-1.3,1.8-2.8,3.4-4.1,3.7c-1.3,0.2-1.7-0.7-1.1-2l3.1-6l1.6-0.3l-3.3,6.5
			c-0.4,0.7-0.2,0.9,0.2,0.8c0.7-0.1,1.8-1.4,2.9-2.9L111.3,62.4z M111.7,55.5c0.5-0.1,0.9,0.2,0.9,0.7c0,0.5-0.4,1-0.9,1.1
			c-0.5,0.1-0.9-0.2-0.9-0.7C110.8,56.1,111.1,55.6,111.7,55.5z"/>
		<path class="st1" d="M118.7,61c0.2,0,0.5,0.2,0.6,0.4c-1.3,1.8-2.8,3.4-4.1,3.7c-1.3,0.2-1.7-0.7-1.1-2l2-3.9
			c0.7-1.3-0.4-1.5-2.8,2l-2.4,4.6l-1.6,0.3l4.3-8.3l1.6-0.3l-0.6,1.1c0.8-1,1.5-1.5,2.2-1.6c0.9-0.2,1.5,0.6,0.8,1.9l-2.2,4.4
			c-0.4,0.7-0.2,0.9,0.2,0.8c0.7-0.1,1.8-1.4,2.9-2.9L118.7,61z"/>
		<path class="st1" d="M120.1,64.4l0.4-0.8c-0.5,0.4-1,0.7-1.5,0.8c-1.3,0.2-1.7-0.7-1.1-2l2.2-4.2c0.7-1.3,1.8-2.2,2.7-2.3
			c1-0.2,1.6,0.5,1.6,1.2l0.9-0.2l-3.5,6.6c1.2-0.8,2.3-1.9,3.6-3.7l0.1-0.1c0.2,0,0.5,0.2,0.6,0.4c-1.7,2.3-3.3,3.7-4.9,4.6
			l-1.2,2.3c-1.1,2.1-3.4,2.3-3.4,0.8C116.7,66.5,118,65.4,120.1,64.4z M118.8,66.9l0.7-1.4c-1.2,0.7-1.6,1.2-1.6,1.6
			C117.9,67.6,118.5,67.6,118.8,66.9z M119.3,62.5c-0.4,0.7-0.2,0.9,0.2,0.8c0.7-0.1,1.6-1,2.5-2.7l1.2-2.3c0.8-1.6-0.9-1.6-1.7,0
			L119.3,62.5z"/>
		<path class="st1" d="M137.6,57.3c0.2,0,0.5,0.2,0.6,0.4c-1.3,1.8-2.8,3.4-4.1,3.7c-0.8,0.2-1.3-0.2-1.3-0.8
			c-0.8,0.8-1.5,1.3-2.2,1.4c-1.3,0.2-1.7-0.7-1.1-2l2.2-4.2c0.7-1.3,1.8-2.2,2.7-2.3c1-0.2,1.7,0.6,1.6,1.3l0.9-0.2l-2.5,4.9
			c-0.4,0.7-0.2,0.9,0.2,0.8c0.7-0.1,1.8-1.4,2.9-2.9L137.6,57.3z M130.9,60.2c-0.4,0.7-0.2,0.9,0.2,0.8c0.6-0.1,1.6-1,2.5-2.7
			l1.2-2.4c0.8-1.6-0.9-1.6-1.7,0L130.9,60.2z"/>
		<path class="st1" d="M23.4,108.8v-13l3.2-0.6c2.8-0.5,4,0.3,4,3.1c0,2.8-1.3,4.1-4,4.6l-1,0.2v5.3L23.4,108.8z M25.6,101.2
			l0.9-0.2c1.5-0.3,1.9-0.8,1.9-2.4c0-1.5-0.4-1.9-1.9-1.6l-0.9,0.2V101.2z"/>
		<path class="st1" d="M32.5,97.2c0-1.8,1.1-3.5,3.4-4c2.3-0.5,3.4,0.8,3.4,2.7v6.7c0,1.8-1.1,3.5-3.4,4c-2.3,0.5-3.4-0.8-3.4-2.7
			V97.2z M34.8,103.4c0,1,0.3,1.4,1.2,1.2s1.2-0.7,1.2-1.7v-6.6c0-1-0.3-1.4-1.2-1.2s-1.2,0.7-1.2,1.7V103.4z"/>
		<path class="st1" d="M43.9,104.8l-2.2,0.4v-13l3.1-0.6c2.5-0.5,3.8,0.3,3.8,3.1c0,2.1-0.8,3.1-1.6,3.6l1.9,5.5l-2.3,0.4l-1.6-5.1
			c-0.3,0.1-0.8,0.2-1.2,0.3V104.8z M43.9,97.6l0.8-0.2c1.2-0.2,1.7-0.8,1.7-2.3c0-1.5-0.5-1.9-1.7-1.7l-0.8,0.2V97.6z"/>
		<path class="st1" d="M52.2,92.1L50,92.6v-1.9l6.6-1.3v1.9l-2.2,0.4v11.1l-2.2,0.4V92.1z"/>
		<path class="st1" d="M58.1,102V89l6.2-1.2v1.9l-4,0.8v3.3l3-0.6v1.9l-3,0.6v5.8L58.1,102z"/>
		<path class="st1" d="M66.2,90.6c0-1.8,1.1-3.5,3.4-4c2.3-0.5,3.4,0.8,3.4,2.7V96c0,1.8-1.1,3.5-3.4,4c-2.3,0.5-3.4-0.8-3.4-2.7
			V90.6z M68.5,96.8c0,1,0.3,1.4,1.2,1.2s1.2-0.7,1.2-1.7v-6.6c0-1-0.3-1.4-1.2-1.2s-1.2,0.7-1.2,1.7V96.8z"/>
		<path class="st1" d="M75.3,98.7v-13l2.2-0.4v11.1l3.5-0.7v1.9L75.3,98.7z"/>
		<path class="st1" d="M82.9,97.2v-13l2.2-0.4v13L82.9,97.2z"/>
		<path class="st1" d="M87.8,86.4c0-1.8,1.1-3.5,3.4-4c2.3-0.5,3.4,0.8,3.4,2.7v6.7c0,1.8-1.1,3.5-3.4,4c-2.3,0.5-3.4-0.8-3.4-2.7
			V86.4z M90,92.6c0,1,0.3,1.4,1.2,1.2c0.9-0.2,1.2-0.7,1.2-1.7v-6.6c0-1-0.3-1.4-1.2-1.2C90.3,84.5,90,85.1,90,86V92.6z"/>
		<path class="st1" d="M103.4,93.2l-2.2,0.4v-13l3.1-0.6c2.5-0.5,3.8,0.3,3.8,3.1c0,2.1-0.8,3.1-1.6,3.6l1.9,5.5l-2.3,0.4l-1.6-5.1
			c-0.3,0.1-0.8,0.2-1.2,0.3V93.2z M103.4,86.1l0.8-0.2c1.2-0.2,1.7-0.8,1.7-2.3c0-1.5-0.5-1.9-1.7-1.7l-0.8,0.2V86.1z"/>
		<path class="st1" d="M110.3,91.9v-13l6-1.2v1.9l-3.7,0.7v3.3l2.9-0.6v1.9l-2.9,0.6v3.8l4-0.8v1.9L110.3,91.9z"/>
		<path class="st1" d="M123.1,76.4l2.2-0.4l-2.7,13.5l-2.2,0.4l-2.7-12.5l2.2-0.4l1.6,8.7l0,0L123.1,76.4z"/>
		<path class="st1" d="M127,88.7v-13l2.2-0.4v13L127,88.7z"/>
		<path class="st1" d="M131.9,87.7v-13l6-1.2v1.9l-3.7,0.7v3.3L137,79V81l-2.9,0.6v3.8l4-0.8v1.9L131.9,87.7z"/>
		<path class="st1" d="M143.9,72.4l1.8-0.4l1.5,8l0,0l1.2-8.5l2.1-0.4l-2.3,13.4l-1.9,0.4l-1.6-8.3l0,0l-1.5,8.9l-1.9,0.4l-2.5-12.5
			l2.1-0.4l1.4,8l0,0L143.9,72.4z"/>
		<path class="st1" d="M53.3,123.8c-2.1,3.1-5.9,2.5-3.9-1.2l0.7-1.3l0.8-1.5c0.9-1.7,1.8-2.4,3-2.6c1.5-0.3,2.3,1.1,1.4,2.9
			l-1.5,2.8c0.8-0.2,1.6-0.7,2.4-1.6l0.1-0.1c0.2,0,0.5,0.2,0.6,0.4c-0.8,1.1-2.3,2-3.2,2.1L53.3,123.8z M52.8,121.9L52.8,121.9
			l1.2-2.2c0.9-1.8-0.6-2.2-1.7-0.2l-0.7,1.4l-1.2,2.3c-0.9,1.8,0.9,1.7,1.6,0.3l0,0c-0.1-0.1-0.2-0.3-0.2-0.5
			C51.9,122.5,52.3,122,52.8,121.9z"/>
		<path class="st1" d="M63.6,119.7c0.2,0,0.5,0.2,0.6,0.4c-1.3,1.8-2.8,3.4-4.1,3.7c-1.3,0.2-1.7-0.7-1.1-2l2-3.9
			c0.7-1.3-0.4-1.5-2.8,2l-2.4,4.6l-1.6,0.3l4.3-8.3l1.6-0.3l-0.6,1.1c0.8-1,1.5-1.5,2.2-1.6c0.9-0.2,1.5,0.6,0.8,1.9l-2.2,4.4
			c-0.4,0.7-0.2,0.9,0.2,0.8c0.7-0.1,1.8-1.4,2.9-2.9L63.6,119.7z"/>
		<path class="st1" d="M82.1,110.5c0.8-1.4-0.6-1.5-3.6,3.2l0,0l-3.6,7l-1.6,0.3l5.1-9.9c0.7-1.4-0.6-1.5-3.5,3.1l-3.7,7.2l-1.6,0.3
			l5.3-10.3c-1.7,1.2-4.3,1.7-5.1,3.1c-0.8,1.5,0.6,1.7,0.6,1.7l-0.6,1.1c-1-0.2-2.2-1.2-1.2-3.2c1.3-2.5,4.7-2.3,7.5-5l0.8,1.2
			l-0.4,0.8c1-1.4,1.9-2.1,2.7-2.3c0.8-0.2,1.5,0.5,0.9,1.7c1-1.5,2-2.3,2.8-2.4c0.9-0.2,1.5,0.6,0.8,1.9l-5.8,11.1
			c-0.2,0.4-0.3,1.2,0.2,1.3l-0.7,1.3c-1.3-0.4-1.3-1.8-0.7-3L82.1,110.5z"/>
		<path class="st1" d="M89.5,114.7c0.2,0,0.5,0.2,0.6,0.4c-1.3,1.8-2.8,3.4-4.1,3.7c-0.8,0.2-1.3-0.2-1.3-0.8
			c-0.8,0.8-1.5,1.3-2.2,1.4c-1.3,0.2-1.7-0.7-1.1-2l2.2-4.2c0.7-1.3,1.8-2.2,2.7-2.3c1-0.2,1.7,0.6,1.6,1.3l0.9-0.2l-2.5,4.9
			c-0.4,0.7-0.2,0.9,0.2,0.8c0.7-0.1,1.8-1.4,2.9-2.9L89.5,114.7z M82.8,117.6c-0.4,0.7-0.2,0.9,0.2,0.8c0.6-0.1,1.6-1,2.5-2.7
			l1.2-2.4c0.8-1.6-0.9-1.6-1.7,0L82.8,117.6z"/>
		<path class="st1" d="M92.7,114.6l2.8-5.3L97,109l-4.3,8.2c1.2-0.8,2.3-1.9,3.6-3.7l0.1-0.1c0.2,0,0.5,0.2,0.6,0.4
			c-1.7,2.3-3.3,3.7-4.9,4.6l-1.2,2.3c-1.1,2.1-3.4,2.3-3.4,0.8c0-1.2,1.3-2.3,3.4-3.3l0.9-1.6c-0.7,0.8-1.6,1.6-2.3,1.7
			c-1,0.2-1.4-0.7-0.6-2.2L92,110l1.6-0.3l-3,5.9c-0.2,0.4-0.6,1-0.2,1.1C90.6,116.8,91.5,116,92.7,114.6z M89.7,120.6l0.7-1.4
			c-1.2,0.7-1.6,1.2-1.6,1.6C88.8,121.2,89.3,121.2,89.7,120.6z"/>
		<path class="st1" d="M102.6,109.1c1.1-0.6,2.1-1.1,3-2.1l0.6,1.2l-3.1,6l1.4-0.3l-0.6,1.2l-4.1,0.8l0.6-1.2l1.3-0.3l2.8-5.5
			c-0.5,0.4-1.1,0.7-1.7,1L102.6,109.1z"/>
		<path class="st1" d="M111.4,108.7c0.9-1.8-0.6-2.2-1.6-0.2l-0.4,0.8l-1.6,0.3l0.6-1.1c1.8-3.5,6-2.8,4.3,0.6
			c-1.1,2.2-2.8,3.6-4.1,4.3l2.7-0.5l-0.6,1.1l-5.5,1.1l0.6-1.1C108,112.8,109.8,111.6,111.4,108.7z"/>
		<path class="st1" d="M113.7,111.7c0.5-0.1,0.9,0.2,0.9,0.7c0,0.5-0.4,0.9-0.9,1c-0.5,0.1-0.9-0.2-0.9-0.7
			C112.9,112.2,113.3,111.7,113.7,111.7z"/>
		<path class="st2" d="M120,108.7c0.2,0,0.5,0.2,0.6,0.4c-1.3,1.8-2.8,3.4-4.1,3.7c-1.3,0.2-1.7-0.7-1.1-2l3.1-6l1.6-0.3l-3.3,6.5
			c-0.4,0.7-0.2,0.9,0.2,0.8c0.7-0.1,1.8-1.4,2.9-2.9L120,108.7z M120.3,101.8c0.5-0.1,0.9,0.2,0.9,0.7c0,0.5-0.4,1-0.9,1.1
			c-0.5,0.1-0.9-0.2-0.9-0.7C119.4,102.4,119.8,101.9,120.3,101.8z"/>
		<path class="st2" d="M123.8,108c0.2,0,0.5,0.2,0.6,0.4c-1.3,1.8-2.8,3.4-4.1,3.7c-1.3,0.2-1.7-0.7-1.1-2l3.1-6l1.6-0.3l-3.3,6.5
			c-0.4,0.7-0.2,0.9,0.2,0.8c0.7-0.1,1.8-1.4,2.9-2.9L123.8,108z M124.2,101.1c0.5-0.1,0.9,0.2,0.9,0.7c0,0.5-0.4,1-0.9,1.1
			c-0.5,0.1-0.9-0.2-0.9-0.7C123.3,101.7,123.6,101.2,124.2,101.1z"/>
	</g>
	<g>
		
			<rect x="125.6" y="99" transform="matrix(0.1894 0.9819 -0.9819 0.1894 205.8349 -38.3227)" class="st1" width="1" height="13.1"/>
		<g>
			<path class="st1" d="M132.1,104.3c-1.2-0.8-2.1-2.8-2.4-4.2c1.8,1.6,3.9,2.9,6.3,3.4c-2,1.3-3.5,3.4-4.6,5.5
				C131.3,107.6,131.3,105.7,132.1,104.3z"/>
		</g>
	</g>
</g>
</svg>
