<?xml version="1.0" encoding="utf-8"?>
<!-- Generator: Adobe Illustrator 19.2.0, SVG Export Plug-In . SVG Version: 6.00 Build 0)  -->
<svg version="1.1" id="Layer_1" xmlns="http://www.w3.org/2000/svg" xmlns:xlink="http://www.w3.org/1999/xlink" x="0px" y="0px"
	 viewBox="0 0 34.8 21.8" style="enable-background:new 0 0 34.8 21.8;" xml:space="preserve">
<style type="text/css">
	.st0{fill:#FFC42A;}
</style>
<path class="st0" d="M23,20c0.2,0.2,0.4,0.2,0.6,0.2c0.2,0,0.4-0.1,0.6-0.2l8.6-8.6c0.3-0.3,0.3-0.8,0-1.2l-8.6-8.6
	c-0.3-0.3-0.8-0.3-1.2,0c-0.3,0.3-0.3,0.8,0,1.2l7.2,7.2H2.6c-0.5,0-0.8,0.4-0.8,0.8c0,0.5,0.4,0.8,0.8,0.8h27.4L23,18.8
	C22.7,19.2,22.7,19.7,23,20z"/>
</svg>
