<svg id="Layer_1" data-name="Layer 1" xmlns="http://www.w3.org/2000/svg" viewBox="0 0 79.68 77.62">
  <defs>
    <style>
      .cls-1 {
        fill: #fff;
      }
    </style>
  </defs>
  <title>shape-waves</title>
  <g>
    <polygon class="cls-1" points="18.23 27.62 0 12.42 7.68 3.2 18.24 12 32.64 0 47.03 12 61.44 0 79.68 15.2 72 24.42 61.44 15.62 47.03 27.62 32.64 15.62 18.23 27.62"/>
    <polygon class="cls-1" points="18.23 52.62 0 37.42 7.68 28.2 18.24 37 32.64 25 47.03 37 61.44 25 79.68 40.2 72 49.42 61.44 40.62 47.03 52.62 32.64 40.62 18.23 52.62"/>
    <polygon class="cls-1" points="18.23 77.62 0 62.42 7.68 53.2 18.24 62 32.64 50 47.03 62 61.44 50 79.68 65.2 72 74.42 61.44 65.62 47.03 77.62 32.64 65.62 18.23 77.62"/>
  </g>
</svg>
