<?xml version="1.0" encoding="utf-8"?>
<!-- Generator: Adobe Illustrator 19.1.0, SVG Export Plug-In . SVG Version: 6.00 Build 0)  -->
<svg version="1.1" id="Layer_1" xmlns="http://www.w3.org/2000/svg" xmlns:xlink="http://www.w3.org/1999/xlink" x="0px" y="0px"
	 viewBox="0 0 249.4 191.2" style="enable-background:new 0 0 249.4 191.2;" xml:space="preserve">
<style type="text/css">
	.st0{fill:#FFFFFF;}
	.st1{fill-rule:evenodd;clip-rule:evenodd;fill:#FFC42A;}
</style>
<g>
	<g>
		<g>
			<path class="st0" d="M101,41.1c0.7,0.1,1.6,0.7,1.9,1.3c-4.3,6.1-9.2,12-13.5,13.2c-2.8,0.7-4.4-0.4-4.5-2.5
				c-8.3,9.4-17.2,7.8-9.9-6.7l11.1-22.2c-6.7,5.1-18.2,9.1-18.2,15.6c0,2.5,2.7,2.9,2.7,2.9l-1.9,3.9c-2.5-0.3-5.3-2.1-5.3-5.7
				c0-10.6,16.2-14,26-23.2l2.6,3.8L78.9,47.6c-5.2,10.4,2.9,8.6,8.6-1.6l15.2-30.4l5.2-1.4L90.4,49.3c-1.2,2.4-0.5,3,0.6,2.7
				c2.3-0.6,5.9-5,9.7-10.4L101,41.1z"/>
			<path class="st0" d="M125.5,34.5c0.7,0.1,1.6,0.7,1.9,1.3c-4.3,6.1-9.2,12-13.5,13.2c-4.2,1.1-5.7-2-3.5-6.4l6.7-13.5
				c2.2-4.4-1.3-4.8-9.2,7.3L100,52.2l-5.2,1.4l14.4-28.8l5.2-1.4l-1.9,3.9c2.6-3.4,4.9-5.2,7.2-5.8c2.9-0.8,5,1.5,2.8,6l-7.5,15.1
				c-1.2,2.4-0.5,3,0.6,2.7c2.3-0.6,5.9-5,9.7-10.4L125.5,34.5z"/>
			<path class="st0" d="M150,28c0.7,0.1,1.6,0.7,1.9,1.3c-4.3,6.1-9.2,12-13.5,13.2c-2.6,0.7-4.2-0.3-4.5-2.2
				c-2.5,2.7-5.1,4.8-7.2,5.3c-4.2,1.1-5.7-2-3.5-6.4l7.3-14.5c2.2-4.4,6.1-7.6,8.9-8.4c2.1-0.6,3.8,0.2,4.7,1.4l7.6-15.2l5.2-1.4
				l-17.6,35.1c-1.2,2.4-0.5,3,0.6,2.7c2.3-0.6,5.9-5,9.7-10.4L150,28z M127.7,39.3c-1.2,2.4-0.5,3,0.6,2.7c2.2-0.6,5.4-3.9,8.5-9.9
				l3.9-7.8l0,0c2.5-5.4-3-5.1-5.8,0.5L127.7,39.3z"/>
			<path class="st0" d="M154.6,27.8l-0.5,1c-2.4,4.8-0.5,6.3,2.7,5.5c3.6-1,8.4-5.7,12.2-11l0.4-0.5c0.7,0.1,1.6,0.7,1.9,1.3
				c-4.3,6.1-10.1,12.3-16,13.9c-6.1,1.6-8.9-2.7-5.7-9.1l5.4-10.8c2.2-4.4,5.5-7.5,9.7-8.6c4.2-1.1,6.9,1.7,4.1,7.3l-0.7,1.5
				C164.2,26,158,28.3,154.6,27.8z M156.1,24.9c1.9,0.2,5.3-0.6,7.8-5.5l0.7-1.5c3.1-6.2-2.2-5.6-5.2,0.3L156.1,24.9z"/>
			<path class="st0" d="M180.8,14.2c0.6-1.2,0.3-2.2-0.3-2.9l-0.7-0.7c-4.1,6.7-6.1,9.9-8.6,13.4c-0.7-0.3-1.5-0.7-1.9-1.3
				c3.4-4.9,6.5-10.1,8.8-14l-0.4-0.5c-1.8-1.9-1.6-4.9,1.3-8.3l2.7,2.2c-1,1.3-1,2.3-0.3,3.1l2.9,2.7c1.7,1.6,2.5,3.2,0.7,6.8
				l-5.2,10.5c-1.2,2.4-0.5,3,0.6,2.7c2.3-0.6,5.9-5,9.7-10.4l0.3-0.5c0.7,0.1,1.6,0.7,1.9,1.3c-4.3,6.1-9.2,12-13.5,13.2
				c-4.2,1.1-5.7-2-3.5-6.4L180.8,14.2z"/>
			<path class="st0" d="M8.7,113L0,115.3v-7.8l26.3-7v7.8l-8.7,2.3v44.3l-8.9,2.4V113z"/>
			<path class="st0" d="M31.5,151.2V99.1l8.9-2.4v21.2l9.5-2.6V94.1l8.9-2.4v52.1l-8.9,2.4v-23.1l-9.5,2.6v23.1L31.5,151.2z"/>
			<path class="st0" d="M67.6,141.5V89.4L91.5,83v7.8l-15,4v13.4l11.5-3.1v7.8L76.5,116v15.3l16-4.3v7.8L67.6,141.5z"/>
			<path class="st0" d="M113.8,129.1V77l8.9-2.4v21.2l9.5-2.6V72.1l8.9-2.4v52.1l-8.9,2.4v-23.1l-9.5,2.6v23.1L113.8,129.1z"/>
			<path class="st0" d="M149.9,80c0-7.4,4.3-14.5,13.7-17c9.4-2.5,13.7,2.3,13.7,9.7v26.8c0,7.4-4.3,14.5-13.7,17
				c-9.4,2.5-13.7-2.3-13.7-9.7V80z M158.8,104.2c0,3.9,1.2,5.5,4.8,4.5c3.6-1,4.8-3.2,4.8-7V75.3c0-3.9-1.2-5.5-4.8-4.5
				c-3.6,1-4.8,3.2-4.8,7V104.2z"/>
			<path class="st0" d="M186,70.3c0-7.4,4.3-14.5,13.7-17c9.4-2.5,13.7,2.3,13.7,9.7v26.8c0,7.4-4.3,14.5-13.7,17
				c-9.4,2.5-13.7-2.3-13.7-9.7V70.3z M194.9,94.6c0,3.9,1.2,5.5,4.8,4.5c3.6-1,4.8-3.2,4.8-7V65.6c0-3.9-1.2-5.5-4.8-4.5
				c-3.6,1-4.8,3.2-4.8,7V94.6z"/>
			<path class="st0" d="M222,48l13.3-3.6c9.2-2.5,14.1,1.3,14.1,11.9v20.6c0,10.7-4.9,17-14.1,19.5l-13.3,3.6V48z M231,90.4l3.1-0.8
				c4.8-1.3,6.4-3.5,6.4-9V57.7c0-5.5-1.7-6.8-6.4-5.6L231,53V90.4z"/>
		</g>
	</g>
	<g>
		<polygon class="st1" points="133.5,151.4 131,170.9 138.4,168.9 135.8,178.9 140.5,177.8 149.6,161.3 141.9,163.5 145.7,148.1 		
			"/>
		<circle class="st1" cx="137" cy="186.3" r="4.9"/>
	</g>
</g>
</svg>
